<svg aria-hidden="true" style="position: absolute; width: 0; height: 0; overflow: hidden;" version="1.1" xmlns="http://www.w3.org/2000/svg" xmlns:xlink="http://www.w3.org/1999/xlink">
<defs>
<symbol id="sun" viewBox="0 0 32 32">
<path d="M20.714 11.953c0.171 0 0.341-0.065 0.471-0.195l0.943-0.943c0.26-0.26 0.26-0.682 0-0.943s-0.683-0.26-0.943 0l-0.943 0.943c-0.26 0.26-0.26 0.682 0 0.943 0.13 0.13 0.301 0.195 0.471 0.195zM10 16c0-0.368-0.299-0.667-0.667-0.667h-1.333c-0.368 0-0.667 0.299-0.667 0.667s0.299 0.667 0.667 0.667h1.333c0.368 0 0.667-0.299 0.667-0.667zM10.815 20.243l-0.943 0.943c-0.26 0.26-0.26 0.682 0 0.943 0.13 0.13 0.301 0.195 0.471 0.195s0.341-0.065 0.471-0.195l0.943-0.943c0.26-0.26 0.26-0.682 0-0.943s-0.683-0.26-0.943 0zM10.815 11.757c0.13 0.13 0.301 0.195 0.471 0.195s0.341-0.065 0.471-0.195c0.26-0.26 0.26-0.682 0-0.943l-0.943-0.943c-0.26-0.26-0.683-0.26-0.943 0s-0.26 0.682 0 0.943l0.943 0.943zM16 10c0.368 0 0.667-0.299 0.667-0.667v-1.333c0-0.368-0.299-0.667-0.667-0.667s-0.667 0.299-0.667 0.667v1.333c0 0.368 0.299 0.667 0.667 0.667zM24 15.333h-1.333c-0.368 0-0.667 0.299-0.667 0.667s0.299 0.667 0.667 0.667h1.333c0.368 0 0.667-0.299 0.667-0.667s-0.299-0.667-0.667-0.667zM21.185 20.243c-0.26-0.26-0.683-0.26-0.943 0s-0.26 0.682 0 0.943l0.943 0.943c0.13 0.13 0.301 0.195 0.471 0.195s0.341-0.065 0.471-0.195c0.26-0.26 0.26-0.682 0-0.943l-0.943-0.943zM16 22c-0.368 0-0.667 0.299-0.667 0.667v1.333c0 0.368 0.299 0.667 0.667 0.667s0.667-0.299 0.667-0.667v-1.333c0-0.368-0.299-0.667-0.667-0.667zM16 11.333c-2.573 0-4.667 2.093-4.667 4.667s2.093 4.667 4.667 4.667 4.667-2.093 4.667-4.667-2.093-4.667-4.667-4.667zM16 19.333c-1.838 0-3.333-1.495-3.333-3.333s1.495-3.333 3.333-3.333 3.333 1.495 3.333 3.333-1.495 3.333-3.333 3.333z"></path>
</symbol>
<symbol id="cloud" viewBox="0 0 32 32">
<path d="M22 13.333c-0.169 0-0.371 0.026-0.563 0.061-0.698-2.391-2.883-4.061-5.437-4.061s-4.739 1.671-5.437 4.061c-0.192-0.035-0.394-0.061-0.563-0.061-2.022 0-3.667 1.645-3.667 3.667s1.645 3.667 3.667 3.667h12c2.022 0 3.667-1.645 3.667-3.667s-1.645-3.667-3.667-3.667zM22 19.333h-12c-1.287 0-2.333-1.047-2.333-2.333s1.047-2.333 2.333-2.333c0.092 0 0.241 0.023 0.398 0.054v0.613c0 0.368 0.299 0.667 0.667 0.667s0.667-0.299 0.667-0.667v-1.075c0.359-2.083 2.146-3.591 4.269-3.591 2.124 0 3.912 1.51 4.269 3.595v1.072c0 0.368 0.299 0.667 0.667 0.667s0.667-0.299 0.667-0.667v-0.612c0.157-0.031 0.306-0.054 0.397-0.054 1.286 0 2.333 1.047 2.333 2.333s-1.047 2.333-2.333 2.333z"></path>
</symbol>
<symbol id="cloud-sun" viewBox="0 0 32 32">
<path d="M24.185 14.062c0.315-0.639 0.481-1.34 0.481-2.062 0-2.573-2.093-4.667-4.667-4.667-1.534 0-2.965 0.76-3.832 2.007-0.056-0.002-0.111-0.007-0.168-0.007-2.555 0-4.74 1.671-5.437 4.061-0.192-0.035-0.394-0.061-0.563-0.061-2.022 0-3.667 1.645-3.667 3.667s1.645 3.667 3.667 3.667h12c2.022 0 3.667-1.645 3.667-3.667 0-1.203-0.585-2.269-1.482-2.938zM20 8.667c1.838 0 3.333 1.495 3.333 3.333 0 0.516-0.12 1.017-0.345 1.472-0.315-0.088-0.645-0.139-0.988-0.139-0.169 0-0.371 0.026-0.563 0.061-0.536-1.837-1.951-3.245-3.737-3.8 0.613-0.584 1.432-0.928 2.3-0.928zM22 19.333h-12c-1.286 0-2.333-1.047-2.333-2.333s1.047-2.333 2.333-2.333c0.092 0 0.241 0.023 0.398 0.054v0.613c0 0.368 0.299 0.667 0.667 0.667s0.667-0.299 0.667-0.667v-1.073c0.358-2.084 2.145-3.594 4.269-3.594s3.912 1.51 4.269 3.595v1.071c0 0.368 0.299 0.667 0.667 0.667s0.667-0.299 0.667-0.667v-0.612c0.157-0.031 0.306-0.054 0.398-0.054 1.286 0 2.333 1.047 2.333 2.333s-1.047 2.333-2.333 2.333z"></path>
<path d="M20 6c0.368 0 0.667-0.299 0.667-0.667v-1.333c0-0.368-0.299-0.667-0.667-0.667s-0.667 0.299-0.667 0.667v1.333c0 0.368 0.298 0.667 0.667 0.667z"></path>
<path d="M28 11.333h-1.333c-0.368 0-0.667 0.299-0.667 0.667s0.298 0.667 0.667 0.667h1.333c0.368 0 0.667-0.299 0.667-0.667s-0.299-0.667-0.667-0.667z"></path>
<path d="M24.714 7.952c0.171 0 0.341-0.065 0.471-0.195l0.943-0.943c0.26-0.26 0.26-0.682 0-0.943s-0.682-0.26-0.943 0l-0.943 0.943c-0.26 0.26-0.26 0.682 0 0.943 0.13 0.13 0.301 0.195 0.471 0.195z"></path>
<path d="M14.814 7.757c0.13 0.13 0.301 0.195 0.471 0.195s0.341-0.065 0.471-0.195c0.26-0.26 0.26-0.682 0-0.943l-0.943-0.943c-0.26-0.26-0.682-0.26-0.943 0s-0.26 0.682 0 0.943l0.943 0.943z"></path>
</symbol>
<symbol id="icon-weather-icons-68-svgrepo-com" viewBox="0 0 32 32">
<path d="M24.992 20.423l-2.071-1.196 1.178-0.316c0.356-0.095 0.567-0.461 0.471-0.816s-0.461-0.568-0.816-0.471l-2.466 0.661-1.831-1.057 2.178-0.584c0.275-0.074 0.473-0.314 0.493-0.598s-0.143-0.549-0.406-0.66l-1.921-0.812 1.488-0.859 2.465 0.66c0.058 0.016 0.116 0.023 0.173 0.023 0.295 0 0.564-0.197 0.644-0.494 0.095-0.356-0.116-0.721-0.471-0.816l-1.177-0.315 2.070-1.195c0.319-0.184 0.428-0.592 0.244-0.911s-0.592-0.428-0.911-0.244l-2.070 1.195 0.315-1.177c0.095-0.356-0.116-0.721-0.471-0.816-0.358-0.097-0.721 0.116-0.816 0.471l-0.66 2.465-1.488 0.859 0.257-2.069c0.033-0.266-0.096-0.526-0.328-0.66s-0.522-0.116-0.735 0.046l-1.663 1.257v-1.717l1.804-1.804c0.26-0.26 0.26-0.682 0-0.943s-0.682-0.26-0.943 0l-0.861 0.861v-2.391c0-0.368-0.299-0.667-0.667-0.667s-0.667 0.299-0.667 0.667v2.391l-0.862-0.863c-0.26-0.26-0.682-0.26-0.943 0s-0.26 0.682 0 0.943l1.805 1.805v1.717l-1.664-1.259c-0.227-0.172-0.538-0.18-0.774-0.021s-0.346 0.451-0.272 0.726l0.584 2.18-1.831-1.057-0.661-2.465c-0.095-0.355-0.461-0.568-0.816-0.471s-0.567 0.461-0.471 0.816l0.315 1.177-2.070-1.195c-0.32-0.184-0.727-0.075-0.911 0.244s-0.075 0.727 0.244 0.911l2.070 1.195-1.177 0.315c-0.356 0.095-0.567 0.461-0.471 0.816 0.080 0.298 0.349 0.494 0.644 0.494 0.057-0 0.115-0.007 0.173-0.023l2.465-0.66 1.831 1.057-2.176 0.583c-0.275 0.074-0.473 0.314-0.492 0.598s0.143 0.549 0.406 0.66l1.92 0.812-1.488 0.859-2.464-0.66c-0.355-0.096-0.721 0.116-0.816 0.471s0.116 0.721 0.471 0.816l1.176 0.315-2.069 1.195c-0.319 0.184-0.428 0.592-0.244 0.911 0.124 0.214 0.348 0.333 0.578 0.333 0.113 0 0.228-0.029 0.333-0.089l2.071-1.196-0.316 1.178c-0.095 0.355 0.116 0.721 0.471 0.816 0.058 0.016 0.116 0.023 0.173 0.023 0.294 0 0.564-0.197 0.644-0.494l0.661-2.466 1.487-0.858-0.257 2.069c-0.033 0.266 0.096 0.525 0.328 0.66s0.522 0.116 0.735-0.046l1.662-1.257v1.718l-1.805 1.805c-0.26 0.26-0.26 0.682 0 0.943s0.682 0.26 0.943 0l0.862-0.862v2.391c0 0.368 0.298 0.667 0.667 0.667s0.667-0.299 0.667-0.667v-2.39l0.862 0.862c0.13 0.13 0.301 0.195 0.471 0.195s0.341-0.065 0.471-0.195c0.26-0.26 0.26-0.682 0-0.943l-1.804-1.804v-1.717l1.665 1.259c0.118 0.090 0.26 0.135 0.402 0.135 0.13 0 0.26-0.038 0.372-0.114 0.236-0.159 0.345-0.451 0.271-0.726l-0.585-2.178 1.831 1.057 0.66 2.464c0.080 0.298 0.349 0.494 0.644 0.494 0.057 0 0.115-0.007 0.173-0.023 0.355-0.095 0.567-0.461 0.471-0.816l-0.315-1.176 2.069 1.195c0.105 0.061 0.22 0.089 0.333 0.089 0.23 0 0.454-0.119 0.578-0.333 0.184-0.319 0.075-0.727-0.244-0.911zM19.416 15.858l-1.591 0.426-0.493-0.285 1.022-0.59 1.061 0.449zM17.875 12.751l-0.187 1.504-1.022 0.59v-1.18l1.209-0.914zM14.413 12.97l0.92 0.696v1.181l-0.493-0.285-0.426-1.592zM12.582 16.142l1.59-0.426 0.493 0.284-1.022 0.59-1.061-0.449zM14.123 19.249l0.187-1.504 1.023-0.591v1.18l-1.21 0.915zM17.586 19.031l-0.919-0.695v-1.18l0.492 0.285 0.427 1.59z"></path>
</symbol>
<symbol id="rain_showers" viewBox="0 0 32 32">
<path d="M22 13.333c-0.169 0-0.371 0.026-0.563 0.061-0.698-2.391-2.883-4.061-5.437-4.061s-4.74 1.671-5.437 4.061c-0.192-0.035-0.394-0.061-0.563-0.061-2.022 0-3.667 1.645-3.667 3.667s1.645 3.667 3.667 3.667h2.333v5.333c0 0.368 0.298 0.667 0.667 0.667s0.667-0.299 0.667-0.667v-5.333h4.667v5.333c0 0.368 0.298 0.667 0.667 0.667s0.667-0.299 0.667-0.667v-5.333h2.333c2.022 0 3.667-1.645 3.667-3.667s-1.645-3.667-3.667-3.667zM22 19.333h-12c-1.286 0-2.333-1.047-2.333-2.333s1.047-2.333 2.333-2.333c0.092 0 0.241 0.023 0.398 0.054v0.613c0 0.368 0.299 0.667 0.667 0.667s0.667-0.299 0.667-0.667v-1.073c0.358-2.084 2.145-3.594 4.269-3.594s3.911 1.509 4.269 3.594v1.073c0 0.368 0.298 0.667 0.667 0.667s0.667-0.299 0.667-0.667v-0.612c0.157-0.031 0.306-0.054 0.398-0.054 1.286 0 2.333 1.047 2.333 2.333s-1.047 2.333-2.333 2.333z"></path>
<path d="M16 21.333c-0.368 0-0.667 0.299-0.667 0.667v6c0 0.368 0.298 0.667 0.667 0.667s0.667-0.299 0.667-0.667v-6c0-0.368-0.299-0.667-0.667-0.667z"></path>
</symbol>
<symbol id="freezing_rain" viewBox="0 0 32 32">
<path d="M22 13.333c-0.169 0-0.371 0.026-0.563 0.061-0.698-2.391-2.883-4.061-5.437-4.061s-4.74 1.671-5.437 4.061c-0.192-0.035-0.393-0.061-0.563-0.061-2.022 0-3.667 1.645-3.667 3.667s1.645 3.667 3.667 3.667h12c2.022 0 3.667-1.645 3.667-3.667s-1.645-3.667-3.667-3.667zM22 19.333h-12c-1.286 0-2.333-1.047-2.333-2.333s1.047-2.333 2.333-2.333c0.092 0 0.241 0.023 0.398 0.054v0.613c0 0.368 0.299 0.667 0.667 0.667s0.667-0.299 0.667-0.667v-1.075c0.358-2.083 2.146-3.591 4.269-3.591 2.124 0 3.912 1.51 4.269 3.595v1.072c0 0.368 0.299 0.667 0.667 0.667s0.667-0.299 0.667-0.667v-0.612c0.157-0.031 0.306-0.054 0.397-0.054 1.286 0 2.333 1.047 2.333 2.333s-1.047 2.333-2.333 2.333z"></path>
<path d="M13.667 22c0 0.368-0.298 0.667-0.667 0.667s-0.667-0.298-0.667-0.667c0-0.368 0.298-0.667 0.667-0.667s0.667 0.298 0.667 0.667z"></path>
<path d="M19.667 22c0 0.368-0.298 0.667-0.667 0.667s-0.667-0.298-0.667-0.667c0-0.368 0.298-0.667 0.667-0.667s0.667 0.298 0.667 0.667z"></path>
<path d="M16.667 24c0 0.368-0.298 0.667-0.667 0.667s-0.667-0.298-0.667-0.667c0-0.368 0.298-0.667 0.667-0.667s0.667 0.298 0.667 0.667z"></path>
<path d="M19.667 26c0 0.368-0.298 0.667-0.667 0.667s-0.667-0.298-0.667-0.667c0-0.368 0.298-0.667 0.667-0.667s0.667 0.298 0.667 0.667z"></path>
<path d="M16.667 28c0 0.368-0.298 0.667-0.667 0.667s-0.667-0.298-0.667-0.667c0-0.368 0.298-0.667 0.667-0.667s0.667 0.298 0.667 0.667z"></path>
<path d="M13.667 26c0 0.368-0.298 0.667-0.667 0.667s-0.667-0.298-0.667-0.667c0-0.368 0.298-0.667 0.667-0.667s0.667 0.298 0.667 0.667z"></path>
</symbol>
<symbol id="drizzle" viewBox="0 0 32 32">
<path d="M16.667 20v-4c0-0.368-0.299-0.667-0.667-0.667s-0.667 0.299-0.667 0.667v4c0 0.368 0.299 0.667 0.667 0.667s0.667-0.299 0.667-0.667z"></path>
<path d="M13.667 22v-4c0-0.368-0.299-0.667-0.667-0.667s-0.667 0.299-0.667 0.667v4c0 0.368 0.299 0.667 0.667 0.667s0.667-0.299 0.667-0.667z"></path>
<path d="M19.667 22v-4c0-0.368-0.299-0.667-0.667-0.667s-0.667 0.299-0.667 0.667v4c0 0.368 0.299 0.667 0.667 0.667s0.667-0.299 0.667-0.667z"></path>
<path d="M13.333 24h-0.667c-0.368 0-0.667 0.299-0.667 0.667v0.667c0 0.368 0.299 0.667 0.667 0.667h0.667c0.368 0 0.667-0.299 0.667-0.667v-0.667c0-0.368-0.298-0.667-0.667-0.667z"></path>
<path d="M16.333 22h-0.667c-0.368 0-0.667 0.299-0.667 0.667v0.667c0 0.368 0.299 0.667 0.667 0.667h0.667c0.368 0 0.667-0.299 0.667-0.667v-0.667c0-0.368-0.298-0.667-0.667-0.667z"></path>
<path d="M19.333 24h-0.667c-0.368 0-0.667 0.299-0.667 0.667v0.667c0 0.368 0.299 0.667 0.667 0.667h0.667c0.368 0 0.667-0.299 0.667-0.667v-0.667c0-0.368-0.298-0.667-0.667-0.667z"></path>
<path d="M22 13.333c-0.169 0-0.371 0.026-0.563 0.061-0.698-2.391-2.882-4.061-5.437-4.061s-4.739 1.671-5.437 4.061c-0.192-0.035-0.393-0.061-0.563-0.061-2.022 0-3.667 1.645-3.667 3.667s1.645 3.667 3.667 3.667h0.667c0.368 0 0.667-0.299 0.667-0.667s-0.299-0.667-0.667-0.667h-0.667c-1.287 0-2.333-1.047-2.333-2.333s1.047-2.333 2.333-2.333c0.092 0 0.241 0.023 0.398 0.054v0.613c0 0.368 0.299 0.667 0.667 0.667s0.667-0.299 0.667-0.667v-1.074c0.358-2.084 2.146-3.593 4.269-3.593s3.911 1.51 4.269 3.594v1.072c0 0.368 0.299 0.667 0.667 0.667s0.667-0.299 0.667-0.667v-0.612c0.157-0.031 0.306-0.054 0.398-0.054 1.286 0 2.333 1.047 2.333 2.333s-1.047 2.333-2.333 2.333h-0.667c-0.368 0-0.667 0.299-0.667 0.667s0.299 0.667 0.667 0.667h0.667c2.022 0 3.667-1.645 3.667-3.667s-1.645-3.667-3.667-3.667z"></path>
</symbol>
<symbol id="thunderstorm" viewBox="0 0 32 32">
<path d="M15.333 16v6c0 0.368 0.298 0.667 0.667 0.667s0.667-0.299 0.667-0.667v-6c0-0.368-0.299-0.667-0.667-0.667s-0.667 0.298-0.667 0.667z"></path>
<path d="M7.667 22.334h-0.667c-0.368 0-0.667 0.299-0.667 0.667v0.667c0 0.368 0.298 0.667 0.667 0.667h0.667c0.368 0 0.667-0.299 0.667-0.667v-0.667c0-0.368-0.299-0.667-0.667-0.667z"></path>
<path d="M16.333 24h-0.667c-0.368 0-0.667 0.299-0.667 0.667v0.667c0 0.368 0.298 0.667 0.667 0.667h0.667c0.368 0 0.667-0.299 0.667-0.667v-0.667c0-0.368-0.299-0.667-0.667-0.667z"></path>
<path d="M25.333 21.334h-0.667c-0.368 0-0.667 0.299-0.667 0.667v0.667c0 0.368 0.298 0.667 0.667 0.667h0.667c0.368 0 0.667-0.299 0.667-0.667v-0.667c0-0.368-0.299-0.667-0.667-0.667z"></path>
<path d="M10 20.667h0.667c0.368 0 0.667-0.299 0.667-0.667s-0.299-0.667-0.667-0.667h-0.667c-1.286 0-2.333-1.047-2.333-2.333s1.047-2.333 2.333-2.333c0.092 0 0.241 0.023 0.398 0.054v0.613c0 0.368 0.298 0.667 0.667 0.667s0.667-0.299 0.667-0.667v-1.073c0.358-2.084 2.145-3.594 4.269-3.594s3.912 1.51 4.269 3.595v1.071c0 0.368 0.299 0.667 0.667 0.667s0.667-0.299 0.667-0.667v-0.612c0.157-0.031 0.306-0.054 0.398-0.054 1.286 0 2.333 1.047 2.333 2.333s-1.047 2.333-2.333 2.333h-0.667c-0.368 0-0.667 0.299-0.667 0.667s0.298 0.667 0.667 0.667h0.667c2.022 0 3.667-1.645 3.667-3.667s-1.645-3.667-3.667-3.667c-0.169 0-0.371 0.026-0.563 0.061-0.697-2.391-2.882-4.061-5.437-4.061s-4.74 1.671-5.437 4.061c-0.192-0.035-0.394-0.061-0.563-0.061-2.022 0-3.667 1.645-3.667 3.667s1.645 3.667 3.667 3.667z"></path>
<path d="M13 17.334c-0.368 0-0.667 0.299-0.667 0.667v5.025c-0.393-0.228-0.848-0.358-1.333-0.358h-0.667c-0.368 0-0.667 0.299-0.667 0.667s0.298 0.667 0.667 0.667h0.667c0.735 0 1.333 0.598 1.333 1.333 0 0.368 0.298 0.667 0.667 0.667s0.667-0.299 0.667-0.667v-7.334c0-0.368-0.299-0.667-0.667-0.667z"></path>
<path d="M22 21.667c-0.886 0-1.699 0.316-2.333 0.84v-4.507c0-0.368-0.299-0.667-0.667-0.667s-0.667 0.299-0.667 0.667v7.333c0 0 0 0 0 0 0 0.368 0.298 0.667 0.667 0.667s0.667-0.299 0.667-0.667v-0c0-1.286 1.047-2.333 2.333-2.333 0.368 0 0.667-0.299 0.667-0.667s-0.299-0.667-0.667-0.667z"></path>
</symbol>
<symbol id="fog" viewBox="0 0 32 32">
<path d="M13 12.667h4c0.368 0 0.667-0.299 0.667-0.667s-0.299-0.667-0.667-0.667h-4c-0.368 0-0.667 0.299-0.667 0.667s0.298 0.667 0.667 0.667z"></path>
<path d="M9 14.667h8c0.368 0 0.667-0.299 0.667-0.667s-0.299-0.667-0.667-0.667h-8c-0.368 0-0.667 0.299-0.667 0.667s0.298 0.667 0.667 0.667z"></path>
<path d="M7 16.667h8c0.368 0 0.667-0.299 0.667-0.667s-0.299-0.667-0.667-0.667h-8c-0.368 0-0.667 0.299-0.667 0.667s0.298 0.667 0.667 0.667z"></path>
<path d="M26.667 18c0-0.368-0.299-0.667-0.667-0.667h-20c-0.368 0-0.667 0.299-0.667 0.667s0.298 0.667 0.667 0.667h20c0.368 0 0.667-0.299 0.667-0.667z"></path>
<path d="M26 19.333h-19c-0.368 0-0.667 0.299-0.667 0.667s0.298 0.667 0.667 0.667h19c0.368 0 0.667-0.299 0.667-0.667s-0.299-0.667-0.667-0.667z"></path>
<path d="M13 21.333l-4-0c-0.368 0-0.667 0.299-0.667 0.667s0.298 0.667 0.667 0.667l4 0c0.368 0 0.667-0.299 0.667-0.667s-0.299-0.667-0.667-0.667z"></path>
<path d="M19.333 14.667h2.667c0.368 0 0.667-0.299 0.667-0.667s-0.299-0.667-0.667-0.667h-2.667c-0.368 0-0.667 0.299-0.667 0.667s0.298 0.667 0.667 0.667z"></path>
<path d="M16.333 16c0 0.368 0.298 0.667 0.667 0.667h7c0.368 0 0.667-0.299 0.667-0.667s-0.299-0.667-0.667-0.667h-7c-0.368 0-0.667 0.299-0.667 0.667z"></path>
<path d="M24 21.333l-9 0c-0.368 0-0.667 0.299-0.667 0.667s0.298 0.667 0.667 0.667l9-0c0.368 0 0.667-0.299 0.667-0.667s-0.299-0.667-0.667-0.667z"></path>
</symbol>
<symbol id="rain" viewBox="0 0 32 32">
<path d="M22 11.333c-0.169 0-0.371 0.026-0.563 0.061-0.698-2.391-2.883-4.061-5.437-4.061s-4.74 1.671-5.437 4.061c-0.192-0.035-0.394-0.061-0.563-0.061-2.022 0-3.667 1.645-3.667 3.667s1.645 3.667 3.667 3.667c0.368 0 0.667-0.299 0.667-0.667s-0.299-0.667-0.667-0.667c-1.286 0-2.333-1.047-2.333-2.333s1.047-2.333 2.333-2.333c0.092 0 0.241 0.023 0.398 0.054v0.613c0 0.368 0.299 0.667 0.667 0.667s0.667-0.299 0.667-0.667v-1.075c0.358-2.084 2.146-3.592 4.269-3.592s3.912 1.51 4.269 3.596v1.071c0 0.368 0.299 0.667 0.667 0.667s0.667-0.299 0.667-0.667v-0.613c0.156-0.031 0.305-0.054 0.397-0.054 1.286 0 2.333 1.047 2.333 2.333s-1.047 2.333-2.333 2.333c-0.368 0-0.667 0.299-0.667 0.667s0.298 0.667 0.667 0.667c2.022 0 3.667-1.645 3.667-3.667s-1.645-3.667-3.667-3.667z"></path>
<path d="M13.2 17.6c-0.251-0.335-0.815-0.335-1.066 0-0.266 0.354-1.134 1.575-1.134 2.4 0 0.981 0.685 1.667 1.667 1.667s1.667-0.685 1.667-1.667c0-0.825-0.868-2.046-1.133-2.4z"></path>
<path d="M18.8 17.6c-0.266 0.354-1.133 1.575-1.133 2.4 0 0.981 0.685 1.667 1.667 1.667s1.667-0.685 1.667-1.667c0-0.825-0.868-2.046-1.133-2.4-0.251-0.335-0.815-0.335-1.067 0z"></path>
<path d="M15.467 21.6c-0.266 0.354-1.133 1.575-1.133 2.4 0 0.981 0.685 1.667 1.667 1.667s1.667-0.685 1.667-1.667c0-0.825-0.868-2.046-1.133-2.4-0.251-0.335-0.815-0.335-1.067 0z"></path>
</symbol>
<symbol id="snow" viewBox="0 0 32 32">
<path d="M22 13.333c-0.169 0-0.371 0.026-0.563 0.061-0.698-2.391-2.883-4.061-5.437-4.061s-4.739 1.671-5.437 4.061c-0.192-0.035-0.394-0.061-0.563-0.061-2.022 0-3.667 1.645-3.667 3.667s1.645 3.667 3.667 3.667c0.368 0 0.667-0.299 0.667-0.667s-0.299-0.667-0.667-0.667c-1.287 0-2.333-1.047-2.333-2.333s1.047-2.333 2.333-2.333c0.092 0 0.241 0.023 0.398 0.054v0.613c0 0.368 0.299 0.667 0.667 0.667s0.667-0.299 0.667-0.667v-1.074c0.358-2.084 2.146-3.593 4.269-3.593s3.911 1.509 4.269 3.593v1.074c0 0.368 0.299 0.667 0.667 0.667s0.667-0.299 0.667-0.667v-0.613c0.157-0.031 0.305-0.054 0.398-0.054 1.286 0 2.333 1.047 2.333 2.333s-1.047 2.333-2.333 2.333c-0.368 0-0.667 0.299-0.667 0.667s0.299 0.667 0.667 0.667c2.022 0 3.667-1.645 3.667-3.667s-1.645-3.667-3.667-3.667z"></path>
<path d="M15.244 20.821c-0.184-0.319-0.592-0.428-0.911-0.244s-0.428 0.592-0.244 0.911l0.333 0.577c0.123 0.214 0.347 0.333 0.578 0.333 0.113 0 0.228-0.029 0.333-0.089 0.319-0.184 0.428-0.592 0.244-0.911l-0.333-0.577z"></path>
<path d="M13.577 17.935c-0.184-0.319-0.592-0.428-0.911-0.244s-0.428 0.592-0.244 0.911l0.333 0.577c0.123 0.214 0.347 0.333 0.578 0.333 0.113 0 0.228-0.029 0.333-0.089 0.319-0.184 0.428-0.592 0.244-0.911l-0.333-0.577z"></path>
<path d="M14.333 19.423c0.105 0.061 0.22 0.089 0.333 0.089 0.23 0 0.455-0.119 0.578-0.333l0.333-0.577c0.184-0.319 0.075-0.727-0.244-0.911s-0.727-0.075-0.911 0.244l-0.333 0.577c-0.184 0.319-0.075 0.727 0.244 0.911z"></path>
<path d="M13.667 20.577c-0.319-0.184-0.727-0.075-0.911 0.244l-0.333 0.577c-0.184 0.319-0.075 0.727 0.244 0.911 0.105 0.061 0.22 0.089 0.333 0.089 0.23 0 0.455-0.119 0.578-0.333l0.333-0.577c0.184-0.319 0.075-0.727-0.244-0.911z"></path>
<path d="M13.333 20c0-0.368-0.299-0.667-0.667-0.667h-0.667c-0.368 0-0.667 0.299-0.667 0.667s0.299 0.667 0.667 0.667h0.667c0.368 0 0.667-0.299 0.667-0.667z"></path>
<path d="M16.667 20c0-0.368-0.299-0.667-0.667-0.667h-0.667c-0.368 0-0.667 0.299-0.667 0.667s0.299 0.667 0.667 0.667h0.667c0.368 0 0.667-0.299 0.667-0.667z"></path>
<path d="M20.244 23.756c-0.184-0.319-0.592-0.428-0.911-0.244s-0.428 0.592-0.244 0.911l0.333 0.577c0.123 0.214 0.347 0.333 0.578 0.333 0.113 0 0.228-0.029 0.333-0.089 0.319-0.184 0.428-0.592 0.244-0.911l-0.333-0.577z"></path>
<path d="M18.577 20.869c-0.184-0.319-0.592-0.428-0.911-0.244s-0.428 0.592-0.244 0.911l0.333 0.577c0.123 0.214 0.347 0.333 0.578 0.333 0.113 0 0.228-0.029 0.333-0.089 0.319-0.184 0.428-0.592 0.244-0.911l-0.333-0.577z"></path>
<path d="M19.333 22.357c0.105 0.061 0.22 0.089 0.333 0.089 0.23 0 0.455-0.119 0.578-0.333l0.333-0.577c0.184-0.319 0.075-0.727-0.244-0.911s-0.727-0.075-0.911 0.244l-0.333 0.577c-0.184 0.319-0.075 0.727 0.244 0.911z"></path>
<path d="M18.667 23.512c-0.319-0.184-0.727-0.075-0.911 0.244l-0.333 0.577c-0.184 0.319-0.075 0.727 0.244 0.911 0.105 0.061 0.22 0.090 0.333 0.090 0.23 0 0.455-0.119 0.578-0.333l0.333-0.577c0.184-0.319 0.075-0.727-0.244-0.911z"></path>
<path d="M18.333 22.935c0-0.368-0.299-0.667-0.667-0.667h-0.667c-0.368 0-0.667 0.299-0.667 0.667s0.299 0.667 0.667 0.667h0.667c0.368 0 0.667-0.299 0.667-0.667z"></path>
<path d="M21 22.268h-0.667c-0.368 0-0.667 0.299-0.667 0.667s0.299 0.667 0.667 0.667h0.667c0.368 0 0.667-0.299 0.667-0.667s-0.299-0.667-0.667-0.667z"></path>
</symbol>
<symbol id="icon-weather-icons-36-svgrepo-com" viewBox="0 0 32 32">
<path d="M22 13.333c-0.169 0-0.371 0.026-0.563 0.061-0.698-2.391-2.883-4.061-5.437-4.061s-4.739 1.671-5.437 4.061c-0.192-0.035-0.394-0.061-0.563-0.061-2.022 0-3.667 1.645-3.667 3.667s1.645 3.667 3.667 3.667c0.368 0 0.667-0.299 0.667-0.667s-0.299-0.667-0.667-0.667c-1.287 0-2.333-1.047-2.333-2.333s1.047-2.333 2.333-2.333c0.092 0 0.241 0.023 0.398 0.054v0.613c0 0.368 0.299 0.667 0.667 0.667s0.667-0.299 0.667-0.667v-1.074c0.358-2.084 2.146-3.593 4.269-3.593s3.911 1.509 4.269 3.593v1.074c0 0.368 0.299 0.667 0.667 0.667s0.667-0.299 0.667-0.667v-0.613c0.157-0.031 0.305-0.054 0.398-0.054 1.286 0 2.333 1.047 2.333 2.333s-1.047 2.333-2.333 2.333c-0.368 0-0.667 0.299-0.667 0.667s0.299 0.667 0.667 0.667c2.022 0 3.667-1.645 3.667-3.667s-1.645-3.667-3.667-3.667z"></path>
<path d="M16.495 17.353c-0.358-0.090-0.719 0.128-0.809 0.485l-2 8c-0.089 0.357 0.128 0.719 0.485 0.809 0.054 0.013 0.109 0.020 0.162 0.020 0.299 0 0.57-0.202 0.646-0.505l2-8c0.089-0.357-0.128-0.719-0.485-0.808z"></path>
<path d="M19.161 19.353c-0.357-0.090-0.719 0.128-0.808 0.485l-1 4c-0.089 0.357 0.128 0.719 0.485 0.809 0.054 0.014 0.109 0.020 0.162 0.020 0.299 0 0.571-0.202 0.646-0.505l1-4c0.090-0.358-0.128-0.72-0.485-0.809z"></path>
<path d="M12.828 19.353c-0.356-0.090-0.719 0.128-0.808 0.485l-1 4c-0.089 0.357 0.128 0.719 0.485 0.809 0.054 0.014 0.109 0.020 0.162 0.020 0.299 0 0.571-0.202 0.646-0.505l1-4c0.089-0.358-0.128-0.72-0.485-0.809z"></path>
</symbol>
<symbol id="icon-weather-icons-19-svgrepo-com" viewBox="0 0 32 32">
<path d="M16 26c-0.368 0-0.667 0.299-0.667 0.667v1.333c0 0.368 0.298 0.667 0.667 0.667s0.667-0.299 0.667-0.667v-1.333c0-0.368-0.299-0.667-0.667-0.667zM13 24c-0.368 0-0.667 0.299-0.667 0.667v1.333c0 0.368 0.298 0.667 0.667 0.667s0.667-0.299 0.667-0.667v-1.333c0-0.368-0.299-0.667-0.667-0.667zM19 24c-0.368 0-0.667 0.299-0.667 0.667v1.333c0 0.368 0.298 0.667 0.667 0.667s0.667-0.299 0.667-0.667v-1.333c0-0.368-0.299-0.667-0.667-0.667zM22 13.333c-0.169 0-0.371 0.026-0.563 0.061-0.698-2.391-2.883-4.061-5.437-4.061s-4.74 1.671-5.437 4.061c-0.192-0.035-0.394-0.061-0.563-0.061-2.022 0-3.667 1.645-3.667 3.667s1.645 3.667 3.667 3.667h2.333v1.333c0 0.368 0.298 0.667 0.667 0.667s0.667-0.299 0.667-0.667v-1.333h4.667v1.333c0 0.368 0.298 0.667 0.667 0.667s0.667-0.299 0.667-0.667v-1.333h2.333c2.022 0 3.667-1.645 3.667-3.667s-1.645-3.667-3.667-3.667zM22 19.333h-12c-1.286 0-2.333-1.047-2.333-2.333s1.047-2.333 2.333-2.333c0.092 0 0.241 0.023 0.398 0.054v0.613c0 0.368 0.298 0.667 0.667 0.667s0.667-0.299 0.667-0.667v-1.073c0.358-2.084 2.145-3.594 4.269-3.594s3.911 1.509 4.269 3.594v1.073c0 0.368 0.299 0.667 0.667 0.667s0.667-0.299 0.667-0.667v-0.612c0.157-0.031 0.306-0.054 0.398-0.054 1.286 0 2.333 1.047 2.333 2.333s-1.047 2.333-2.333 2.333zM16 22c-0.368 0-0.667 0.299-0.667 0.667v1.333c0 0.368 0.298 0.667 0.667 0.667s0.667-0.299 0.667-0.667v-1.333c0-0.368-0.299-0.667-0.667-0.667z"></path>
</symbol>
</defs>
</svg>

