<?xml version="1.0" encoding="UTF-8"?>
<svg xmlns="http://www.w3.org/2000/svg" xmlns:xlink="http://www.w3.org/1999/xlink" width="0" height="0">


<!DOCTYPE svg PUBLIC "-//W3C//DTD SVG 1.1//EN" "http://www.w3.org/Graphics/SVG/1.1/DTD/svg11.dtd">
<!-- Uploaded to: SVG Repo, www.svgrepo.com, Generator: SVG Repo Mixer Tools -->
<symbol id="weather-icons-01-svgrepo-com"  width="800px"
	 height="800px" viewBox="0 0 96 96" enable-background="new 0 0 96 96" xml:space="preserve">
<g display="none">
</g>
<g id="Dibujo">
	<path d="M62.142,35.858c0.512,0,1.024-0.195,1.414-0.586l2.829-2.829c0.781-0.781,0.781-2.047,0-2.828
		c-0.781-0.781-2.048-0.781-2.828,0l-2.829,2.829c-0.781,0.781-0.781,2.047,0,2.828C61.118,35.663,61.63,35.858,62.142,35.858z
		 M30,48c0-1.104-0.896-2-2-2h-4c-1.104,0-2,0.896-2,2s0.896,2,2,2h4C29.104,50,30,49.104,30,48z M32.444,60.728l-2.829,2.829
		c-0.781,0.781-0.781,2.047,0,2.828c0.39,0.391,0.902,0.586,1.414,0.586c0.512,0,1.024-0.195,1.414-0.586l2.829-2.829
		c0.781-0.781,0.781-2.047,0-2.828C34.492,59.947,33.224,59.947,32.444,60.728z M32.444,35.272c0.39,0.391,0.902,0.586,1.414,0.586
		s1.024-0.195,1.414-0.586c0.781-0.781,0.781-2.047,0-2.828l-2.829-2.829c-0.78-0.781-2.048-0.781-2.828,0
		c-0.781,0.781-0.781,2.047,0,2.828L32.444,35.272z M48,30c1.104,0,2-0.896,2-2v-4c0-1.104-0.896-2-2-2s-2,0.896-2,2v4
		C46,29.104,46.896,30,48,30z M72,46h-4c-1.104,0-2,0.896-2,2s0.896,2,2,2h4c1.104,0,2-0.896,2-2S73.104,46,72,46z M63.556,60.728
		c-0.78-0.781-2.048-0.781-2.828,0c-0.781,0.781-0.781,2.047,0,2.828l2.829,2.829c0.39,0.391,0.902,0.586,1.414,0.586
		c0.512,0,1.023-0.195,1.414-0.586c0.781-0.781,0.781-2.047,0-2.828L63.556,60.728z M48,66c-1.104,0-2,0.896-2,2v4
		c0,1.104,0.896,2,2,2s2-0.896,2-2v-4C50,66.896,49.104,66,48,66z M48,34c-7.72,0-14,6.28-14,14s6.28,14,14,14s14-6.28,14-14
		S55.72,34,48,34z M48,58c-5.514,0-10-4.486-10-10s4.486-10,10-10s10,4.486,10,10S53.514,58,48,58z"/>
</g>
</symbol>


<!DOCTYPE svg PUBLIC "-//W3C//DTD SVG 1.1//EN" "http://www.w3.org/Graphics/SVG/1.1/DTD/svg11.dtd">
<!-- Uploaded to: SVG Repo, www.svgrepo.com, Generator: SVG Repo Mixer Tools -->
<symbol id="weather-icons-16-svgrepo-com"  width="800px"
	 height="800px" viewBox="0 0 96 96" enable-background="new 0 0 96 96" xml:space="preserve">
<g display="none">
</g>
<g id="Dibujo">
	<g>
		<path d="M66,40c-0.507,0-1.112,0.079-1.688,0.184C62.218,33.012,55.663,28,48,28c-7.664,0-14.218,5.012-16.312,12.184
			C31.112,40.079,30.507,40,30,40c-6.065,0-11,4.935-11,11s4.935,11,11,11h36c6.065,0,11-4.935,11-11S72.065,40,66,40z M66,58H30
			c-3.86,0-7-3.141-7-7s3.14-7,7-7c0.277,0,0.723,0.068,1.194,0.162V46c0,1.104,0.896,2,2,2s2-0.896,2-2v-3.226
			C36.27,36.524,41.632,32,48,32c6.371,0,11.735,4.529,12.808,10.784V46c0,1.104,0.896,2,2,2c1.105,0,2-0.896,2-2v-1.837
			C65.278,44.069,65.726,44,66,44c3.859,0,7,3.141,7,7S69.859,58,66,58z"/>
	</g>
</g>
</symbol>


<!DOCTYPE svg PUBLIC "-//W3C//DTD SVG 1.1//EN" "http://www.w3.org/Graphics/SVG/1.1/DTD/svg11.dtd">
<!-- Uploaded to: SVG Repo, www.svgrepo.com, Generator: SVG Repo Mixer Tools -->
<symbol id="weather-icons-17-svgrepo-com"  width="800px"
	 height="800px" viewBox="0 0 96 96" enable-background="new 0 0 96 96" xml:space="preserve">
<g display="none">
</g>
<g id="Dibujo">
	<g>
		<path d="M72.556,42.187C73.501,40.271,74,38.166,74,36c0-7.72-6.28-14-14-14c-4.601,0-8.895,2.281-11.496,6.021
			C48.336,28.016,48.17,28,48.001,28c-7.664,0-14.219,5.012-16.311,12.184C31.113,40.079,30.508,40,30.001,40
			c-6.066,0-11,4.935-11,11s4.934,11,11,11h36c6.065,0,11-4.935,11-11C77.001,47.392,75.247,44.194,72.556,42.187z M60,26
			c5.514,0,10,4.486,10,10c0,1.548-0.36,3.05-1.036,4.417C68.019,40.152,67.028,40,66.001,40c-0.508,0-1.112,0.079-1.69,0.184
			c-1.608-5.511-5.854-9.735-11.21-11.401C54.939,27.03,57.397,26,60,26z M66.001,58h-36c-3.859,0-7-3.141-7-7s3.141-7,7-7
			c0.277,0,0.723,0.068,1.193,0.162V46c0,1.104,0.896,2,2,2c1.104,0,2-0.896,2-2v-3.219C36.267,36.528,41.63,32,48.001,32
			c6.372,0,11.736,4.53,12.807,10.786V46c0,1.104,0.896,2,2,2s2-0.896,2-2v-1.837C65.279,44.069,65.727,44,66.001,44
			c3.859,0,7,3.141,7,7S69.86,58,66.001,58z"/>
		<path d="M60,18c1.104,0,2-0.896,2-2v-4c0-1.104-0.896-2-2-2c-1.105,0-2,0.896-2,2v4C58,17.104,58.895,18,60,18z"/>
		<path d="M84,34h-4c-1.105,0-2,0.896-2,2s0.895,2,2,2h4c1.104,0,2-0.896,2-2S85.104,34,84,34z"/>
		<path d="M74.143,23.857c0.512,0,1.023-0.195,1.414-0.586l2.828-2.828c0.781-0.781,0.781-2.047,0-2.828
			c-0.781-0.781-2.047-0.781-2.828,0l-2.828,2.828c-0.781,0.781-0.781,2.047,0,2.828C73.119,23.662,73.631,23.857,74.143,23.857z"/>
		<path d="M44.443,23.271c0.391,0.391,0.902,0.586,1.414,0.586c0.512,0,1.023-0.195,1.414-0.586c0.781-0.781,0.781-2.047,0-2.828
			l-2.828-2.828c-0.781-0.781-2.047-0.781-2.828,0c-0.781,0.781-0.781,2.047,0,2.828L44.443,23.271z"/>
	</g>
</g>
</symbol>


<!DOCTYPE svg PUBLIC "-//W3C//DTD SVG 1.1//EN" "http://www.w3.org/Graphics/SVG/1.1/DTD/svg11.dtd">
<!-- Uploaded to: SVG Repo, www.svgrepo.com, Generator: SVG Repo Mixer Tools -->
<symbol id="weather-icons-19-svgrepo-com"  width="800px"
	 height="800px" viewBox="0 0 96 96" enable-background="new 0 0 96 96" xml:space="preserve">
<g display="none">
</g>
<g id="Dibujo">
	<path d="M48,78c-1.105,0-2,0.896-2,2v4c0,1.104,0.895,2,2,2c1.104,0,2-0.896,2-2v-4C50,78.896,49.104,78,48,78z M39,72
		c-1.105,0-2,0.896-2,2v4c0,1.104,0.895,2,2,2c1.104,0,2-0.896,2-2v-4C41,72.896,40.104,72,39,72z M57,72c-1.105,0-2,0.896-2,2v4
		c0,1.104,0.895,2,2,2c1.104,0,2-0.896,2-2v-4C59,72.896,58.104,72,57,72z M66,40c-0.508,0-1.112,0.079-1.689,0.184
		C62.218,33.012,55.663,28,48,28c-7.664,0-14.219,5.012-16.312,12.184C31.112,40.079,30.507,40,30,40c-6.065,0-11,4.935-11,11
		s4.935,11,11,11h7v4c0,1.104,0.895,2,2,2c1.104,0,2-0.896,2-2v-4h14v4c0,1.104,0.895,2,2,2c1.104,0,2-0.896,2-2v-4h7
		c6.065,0,11-4.935,11-11S72.065,40,66,40z M66,58H30c-3.859,0-7-3.141-7-7s3.141-7,7-7c0.277,0,0.723,0.068,1.193,0.162V46
		c0,1.104,0.895,2,2,2c1.105,0,2-0.896,2-2v-3.219C36.266,36.528,41.629,32,48,32c6.37,0,11.733,4.528,12.807,10.782V46
		c0,1.104,0.896,2,2,2s2-0.896,2-2v-1.837C65.277,44.069,65.726,44,66,44c3.859,0,7,3.141,7,7S69.859,58,66,58z M48,66
		c-1.105,0-2,0.896-2,2v4c0,1.104,0.895,2,2,2c1.104,0,2-0.896,2-2v-4C50,66.896,49.104,66,48,66z"/>
</g>
</symbol>


<!DOCTYPE svg PUBLIC "-//W3C//DTD SVG 1.1//EN" "http://www.w3.org/Graphics/SVG/1.1/DTD/svg11.dtd">
<!-- Uploaded to: SVG Repo, www.svgrepo.com, Generator: SVG Repo Mixer Tools -->
<symbol id="weather-icons-31-svgrepo-com"  width="800px"
	 height="800px" viewBox="0 0 96 96" enable-background="new 0 0 96 96" xml:space="preserve">
<g display="none">
</g>
<g id="Dibujo">
	<g>
		<path d="M66,40c-0.507,0-1.112,0.079-1.688,0.184C62.218,33.012,55.663,28,48,28s-14.218,5.012-16.311,12.184
			C31.112,40.079,30.507,40,30,40c-6.065,0-11,4.935-11,11s4.935,11,11,11c1.104,0,2-0.896,2-2s-0.896-2-2-2c-3.86,0-7-3.141-7-7
			s3.14-7,7-7c0.277,0,0.723,0.068,1.193,0.162V46c0,1.104,0.896,2,2,2s2-0.896,2-2v-3.221C36.268,36.527,41.631,32,48,32
			s11.732,4.527,12.807,10.779V46c0,1.104,0.896,2,2,2s2-0.896,2-2v-1.838C65.277,44.068,65.723,44,66,44c3.859,0,7,3.141,7,7
			s-3.141,7-7,7c-1.104,0-2,0.896-2,2s0.896,2,2,2c6.065,0,11-4.935,11-11S72.065,40,66,40z"/>
		<path d="M45.732,62.464c-0.551-0.956-1.775-1.284-2.732-0.733c-0.957,0.553-1.284,1.775-0.732,2.732l1,1.732
			c0.37,0.642,1.042,1,1.734,1c0.339,0,0.683-0.086,0.998-0.268c0.957-0.553,1.284-1.775,0.732-2.732L45.732,62.464z"/>
		<path d="M40.732,53.804C40.18,52.848,38.956,52.52,38,53.071c-0.957,0.553-1.284,1.775-0.732,2.732l1,1.732
			c0.37,0.642,1.042,1,1.734,1c0.339,0,0.683-0.086,0.998-0.267c0.957-0.553,1.284-1.775,0.732-2.733L40.732,53.804z"/>
		<path d="M43,58.269c0.315,0.182,0.659,0.267,0.998,0.267c0.691,0,1.364-0.358,1.734-1l1-1.732c0.552-0.957,0.225-2.18-0.732-2.732
			c-0.957-0.552-2.181-0.224-2.732,0.732l-1,1.732C41.716,56.493,42.043,57.716,43,58.269z"/>
		<path d="M41,61.731c-0.957-0.552-2.18-0.224-2.732,0.733l-1,1.732c-0.552,0.957-0.225,2.18,0.732,2.732
			c0.315,0.182,0.659,0.268,0.998,0.268c0.691,0,1.364-0.358,1.734-1l1-1.732C42.284,63.507,41.957,62.284,41,61.731z"/>
		<path d="M40,60c0-1.104-0.896-2-2-2h-2c-1.104,0-2,0.896-2,2s0.896,2,2,2h2C39.104,62,40,61.104,40,60z"/>
		<path d="M50,60c0-1.104-0.896-2-2-2h-2c-1.104,0-2,0.896-2,2s0.896,2,2,2h2C49.104,62,50,61.104,50,60z"/>
		<path d="M60.732,71.268c-0.551-0.956-1.776-1.284-2.732-0.732c-0.957,0.553-1.284,1.775-0.732,2.732l1,1.732
			c0.37,0.642,1.042,1,1.734,1c0.339,0,0.683-0.086,0.998-0.268c0.957-0.553,1.284-1.775,0.732-2.732L60.732,71.268z"/>
		<path d="M55.732,62.607c-0.552-0.956-1.775-1.284-2.732-0.732c-0.957,0.553-1.284,1.775-0.732,2.732l1,1.732
			c0.37,0.642,1.042,1,1.734,1c0.339,0,0.683-0.086,0.998-0.267c0.957-0.553,1.284-1.775,0.732-2.733L55.732,62.607z"/>
		<path d="M58,67.072c0.315,0.182,0.659,0.267,0.998,0.267c0.691,0,1.364-0.358,1.734-1l1-1.732c0.552-0.957,0.225-2.18-0.732-2.732
			c-0.957-0.552-2.18-0.224-2.732,0.732l-1,1.732C56.716,65.297,57.043,66.52,58,67.072z"/>
		<path d="M56,70.535c-0.957-0.552-2.18-0.224-2.732,0.732l-1,1.732c-0.552,0.957-0.225,2.18,0.732,2.732
			C53.315,75.914,53.659,76,53.998,76c0.691,0,1.364-0.358,1.734-1l1-1.732C57.284,72.311,56.957,71.088,56,70.535z"/>
		<path d="M55,68.804c0-1.104-0.896-2-2-2h-2c-1.104,0-2,0.896-2,2s0.896,2,2,2h2C54.104,70.804,55,69.908,55,68.804z"/>
		<path d="M63,66.804h-2c-1.104,0-2,0.896-2,2s0.896,2,2,2h2c1.104,0,2-0.896,2-2S64.104,66.804,63,66.804z"/>
	</g>
</g>
</symbol>


<!DOCTYPE svg PUBLIC "-//W3C//DTD SVG 1.1//EN" "http://www.w3.org/Graphics/SVG/1.1/DTD/svg11.dtd">
<!-- Uploaded to: SVG Repo, www.svgrepo.com, Generator: SVG Repo Mixer Tools -->
<symbol id="weather-icons-36-svgrepo-com"  width="800px"
	 height="800px" viewBox="0 0 96 96" enable-background="new 0 0 96 96" xml:space="preserve">
<g display="none">
</g>
<g id="Dibujo">
	<g>
		<path d="M66,40c-0.507,0-1.112,0.079-1.688,0.184C62.217,33.012,55.663,28,48,28s-14.218,5.012-16.311,12.184
			C31.112,40.079,30.507,40,30,40c-6.065,0-11,4.935-11,11s4.935,11,11,11c1.104,0,2-0.896,2-2s-0.896-2-2-2c-3.86,0-7-3.141-7-7
			s3.14-7,7-7c0.277,0,0.723,0.068,1.193,0.162V46c0,1.104,0.896,2,2,2s2-0.896,2-2v-3.221C36.267,36.527,41.63,32,48,32
			s11.732,4.527,12.807,10.779V46c0,1.104,0.896,2,2,2s2-0.896,2-2v-1.838C65.277,44.068,65.722,44,66,44c3.859,0,7,3.141,7,7
			s-3.141,7-7,7c-1.104,0-2,0.896-2,2s0.896,2,2,2c6.065,0,11-4.935,11-11S72.065,40,66,40z"/>
		<path d="M49.485,52.06c-1.073-0.27-2.158,0.384-2.426,1.455l-6,24c-0.268,1.072,0.384,2.157,1.455,2.426
			C42.677,79.981,42.84,80,43.001,80c0.896,0,1.711-0.606,1.939-1.515l6-24C51.208,53.413,50.557,52.328,49.485,52.06z"/>
		<path d="M57.484,58.06c-1.072-0.271-2.157,0.384-2.425,1.455l-3,12c-0.268,1.072,0.384,2.158,1.456,2.426
			c0.163,0.041,0.326,0.06,0.486,0.06c0.896,0,1.712-0.606,1.939-1.515l2.999-12C59.208,59.413,58.556,58.327,57.484,58.06z"/>
		<path d="M38.484,58.06c-1.069-0.271-2.157,0.384-2.425,1.455l-3,12c-0.268,1.072,0.384,2.158,1.456,2.426
			c0.163,0.041,0.326,0.06,0.486,0.06c0.896,0,1.712-0.606,1.939-1.515l3-12C40.208,59.413,39.556,58.327,38.484,58.06z"/>
	</g>
</g>
</symbol>


<!DOCTYPE svg PUBLIC "-//W3C//DTD SVG 1.1//EN" "http://www.w3.org/Graphics/SVG/1.1/DTD/svg11.dtd">
<!-- Uploaded to: SVG Repo, www.svgrepo.com, Generator: SVG Repo Mixer Tools -->
<symbol id="weather-icons-68-svgrepo-com"  width="800px"
	 height="800px" viewBox="0 0 96 96" enable-background="new 0 0 96 96" xml:space="preserve">
<g display="none">
</g>
<g id="Dibujo">
	<path d="M74.977,61.269l-6.212-3.587l3.535-0.947c1.067-0.286,1.7-1.383,1.414-2.449c-0.285-1.066-1.384-1.705-2.449-1.414
		l-7.398,1.982l-5.493-3.171l6.533-1.751c0.825-0.221,1.419-0.941,1.478-1.794c0.059-0.852-0.43-1.647-1.217-1.979l-5.763-2.436
		l4.463-2.577l7.396,1.981c0.174,0.047,0.348,0.069,0.519,0.069c0.884,0,1.691-0.59,1.931-1.483
		c0.286-1.067-0.348-2.164-1.414-2.449l-3.532-0.946l6.211-3.586c0.957-0.553,1.284-1.775,0.733-2.732
		c-0.554-0.957-1.777-1.285-2.733-0.732l-6.21,3.585l0.945-3.53c0.286-1.067-0.348-2.164-1.414-2.449
		c-1.074-0.29-2.163,0.348-2.449,1.414l-1.98,7.394l-4.463,2.577l0.771-6.207c0.1-0.798-0.288-1.577-0.984-1.979
		c-0.695-0.4-1.566-0.347-2.206,0.137l-4.988,3.771v-5.152l5.412-5.412c0.781-0.781,0.781-2.047,0-2.828
		c-0.781-0.781-2.047-0.781-2.828,0l-2.584,2.584V18c0-1.104-0.896-2-2-2c-1.105,0-2,0.896-2,2v7.174l-2.587-2.588
		c-0.781-0.781-2.047-0.781-2.828,0c-0.781,0.78-0.781,2.047,0,2.828l5.415,5.416v5.15l-4.991-3.777
		c-0.682-0.516-1.615-0.541-2.323-0.064c-0.709,0.477-1.037,1.352-0.815,2.177l1.752,6.54l-5.493-3.171l-1.983-7.396
		c-0.285-1.066-1.383-1.703-2.449-1.414c-1.067,0.286-1.7,1.383-1.414,2.449l0.946,3.531l-6.211-3.586
		c-0.959-0.553-2.18-0.225-2.732,0.732c-0.552,0.957-0.225,2.18,0.732,2.732l6.21,3.585l-3.53,0.946
		c-1.067,0.286-1.7,1.383-1.414,2.449c0.239,0.894,1.047,1.483,1.931,1.483c0.171-0.001,0.346-0.022,0.519-0.069l7.394-1.981
		l5.492,3.171l-6.529,1.75c-0.825,0.221-1.419,0.941-1.477,1.794c-0.059,0.852,0.43,1.647,1.217,1.979l5.76,2.436l-4.464,2.577
		l-7.391-1.981c-1.065-0.289-2.164,0.348-2.449,1.414c-0.286,1.066,0.347,2.163,1.414,2.449l3.527,0.946l-6.208,3.584
		c-0.957,0.553-1.284,1.775-0.732,2.732c0.371,0.642,1.043,1,1.734,1c0.339,0,0.684-0.086,0.998-0.268l6.213-3.587l-0.947,3.535
		c-0.286,1.066,0.347,2.163,1.414,2.449c0.173,0.047,0.348,0.069,0.518,0.069c0.883,0,1.691-0.59,1.931-1.483l1.982-7.398
		l4.461-2.575l-0.771,6.208c-0.1,0.797,0.288,1.576,0.984,1.979c0.696,0.4,1.566,0.347,2.206-0.137L46,60.018v5.153l-5.415,5.415
		c-0.781,0.781-0.781,2.047,0,2.828c0.781,0.781,2.047,0.781,2.828,0L46,70.827V78c0,1.104,0.895,2,2,2c1.104,0,2-0.896,2-2v-7.171
		l2.585,2.585C52.976,73.805,53.487,74,53.999,74c0.512,0,1.023-0.195,1.414-0.586c0.781-0.781,0.781-2.047,0-2.828L50,65.173
		v-5.152l4.994,3.777c0.355,0.269,0.78,0.405,1.206,0.405c0.39,0,0.779-0.113,1.117-0.341c0.709-0.478,1.036-1.353,0.814-2.178
		l-1.754-6.535l5.494,3.172l1.979,7.392c0.239,0.894,1.047,1.483,1.931,1.483c0.171,0,0.345-0.022,0.519-0.069
		c1.066-0.285,1.7-1.382,1.414-2.449l-0.944-3.528l6.208,3.584c0.316,0.182,0.659,0.268,0.998,0.268c0.691,0,1.363-0.358,1.734-1
		C76.262,63.044,75.935,61.821,74.977,61.269z M58.247,47.575l-4.772,1.279L51.996,48l3.067-1.771L58.247,47.575z M53.625,38.252
		l-0.561,4.512l-3.065,1.77v-3.539L53.625,38.252z M43.24,38.909l2.759,2.087v3.542l-1.48-0.854L43.24,38.909z M37.747,48.425
		l4.769-1.278L43.994,48l-3.065,1.771L37.747,48.425z M42.37,57.747l0.56-4.513L46,51.462v3.541L42.37,57.747z M52.758,57.092
		L50,55.007v-3.54l1.477,0.854L52.758,57.092z"/>
</g>
</symbol>


<!DOCTYPE svg PUBLIC "-//W3C//DTD SVG 1.1//EN" "http://www.w3.org/Graphics/SVG/1.1/DTD/svg11.dtd">
<!-- Uploaded to: SVG Repo, www.svgrepo.com, Generator: SVG Repo Mixer Tools -->
<symbol id="weather-icons-22-svgrepo-com"  width="800px"
	 height="800px" viewBox="0 0 96 96" enable-background="new 0 0 96 96" xml:space="preserve">
<g display="none">
</g>
<g id="Dibujo">
	<g>
		<path d="M66,40c-0.508,0-1.112,0.079-1.689,0.184C62.218,33.012,55.663,28,48,28c-7.664,0-14.219,5.012-16.312,12.184
			C31.112,40.079,30.507,40,30,40c-6.065,0-11,4.935-11,11s4.935,11,11,11h7v16c0,1.104,0.895,2,2,2c1.104,0,2-0.896,2-2V62h14v16
			c0,1.104,0.895,2,2,2c1.104,0,2-0.896,2-2V62h7c6.065,0,11-4.935,11-11S72.065,40,66,40z M66,58H30c-3.859,0-7-3.141-7-7
			s3.141-7,7-7c0.277,0,0.723,0.068,1.193,0.162V46c0,1.104,0.896,2,2,2c1.104,0,2-0.896,2-2v-3.219C36.266,36.528,41.629,32,48,32
			c6.37,0,11.733,4.528,12.807,10.782V46c0,1.104,0.895,2,2,2c1.105,0,2-0.896,2-2v-1.837C65.277,44.069,65.726,44,66,44
			c3.859,0,7,3.141,7,7S69.859,58,66,58z"/>
		<path d="M48,64c-1.105,0-2,0.896-2,2v18c0,1.104,0.895,2,2,2c1.104,0,2-0.896,2-2V66C50,64.896,49.104,64,48,64z"/>
	</g>
</g>
</symbol>


<!DOCTYPE svg PUBLIC "-//W3C//DTD SVG 1.1//EN" "http://www.w3.org/Graphics/SVG/1.1/DTD/svg11.dtd">
<!-- Uploaded to: SVG Repo, www.svgrepo.com, Generator: SVG Repo Mixer Tools -->
<symbol id="weather-icons-25-svgrepo-com"  width="800px"
	 height="800px" viewBox="0 0 96 96" enable-background="new 0 0 96 96" xml:space="preserve">
<g display="none">
</g>
<g id="Dibujo">
	<g>
		<path d="M66,40c-0.507,0-1.112,0.079-1.689,0.184C62.218,33.012,55.663,28,48,28c-7.664,0-14.219,5.012-16.312,12.184
			C31.112,40.079,30.508,40,30,40c-6.065,0-11,4.935-11,11s4.935,11,11,11h36c6.065,0,11-4.935,11-11S72.065,40,66,40z M66,58H30
			c-3.859,0-7-3.141-7-7s3.141-7,7-7c0.277,0,0.723,0.068,1.194,0.162V46c0,1.104,0.896,2,2,2s2-0.896,2-2v-3.226
			C36.269,36.524,41.632,32,48,32c6.371,0,11.735,4.529,12.808,10.784V46c0,1.104,0.896,2,2,2s2-0.896,2-2v-1.837
			C65.278,44.069,65.726,44,66,44c3.859,0,7,3.141,7,7S69.859,58,66,58z"/>
		<circle cx="39" cy="66" r="2"/>
		<circle cx="57" cy="66" r="2"/>
		<circle cx="48" cy="72" r="2"/>
		<circle cx="57" cy="78" r="2"/>
		<circle cx="48" cy="84" r="2"/>
		<circle cx="39" cy="78" r="2"/>
	</g>
</g>
</symbol>


<!DOCTYPE svg PUBLIC "-//W3C//DTD SVG 1.1//EN" "http://www.w3.org/Graphics/SVG/1.1/DTD/svg11.dtd">
<!-- Uploaded to: SVG Repo, www.svgrepo.com, Generator: SVG Repo Mixer Tools -->
<symbol id="weather-icons-28-svgrepo-com"  width="800px"
	 height="800px" viewBox="0 0 96 96" enable-background="new 0 0 96 96" xml:space="preserve">
<g display="none">
</g>
<g id="Dibujo">
	<path d="M66,40c-0.508,0-1.112,0.079-1.689,0.184C62.218,33.012,55.663,28,48,28c-7.664,0-14.219,5.012-16.312,12.184
		C31.112,40.079,30.507,40,30,40c-6.065,0-11,4.935-11,11s4.935,11,11,11h11.263l-3.927,5.891c-0.409,0.613-0.447,1.402-0.1,2.053
		C37.585,70.594,38.263,71,39,71h2.263l-3.927,5.891c-0.612,0.919-0.364,2.161,0.555,2.773C38.231,79.892,38.617,80,38.998,80
		c0.646,0,1.28-0.313,1.666-0.891l6-9c0.409-0.613,0.447-1.402,0.1-2.053C46.415,67.406,45.737,67,45,67h-2.263l3.333-5h5.192
		l-1.927,2.891c-0.409,0.613-0.447,1.402-0.1,2.053C49.585,67.594,50.263,68,51,68h2.263l-1.927,2.891
		c-0.612,0.919-0.364,2.161,0.555,2.773C52.231,73.892,52.617,74,52.998,74c0.646,0,1.28-0.313,1.666-0.891l4-6
		c0.409-0.613,0.447-1.402,0.1-2.053C58.415,64.406,57.737,64,57,64h-2.263l1.333-2H66c6.065,0,11-4.935,11-11S72.065,40,66,40z
		 M66,58H30c-3.859,0-7-3.141-7-7s3.141-7,7-7c0.277,0,0.723,0.068,1.193,0.162V46c0,1.104,0.895,2,2,2s2-0.896,2-2v-3.219
		C36.266,36.528,41.629,32,48,32c6.37,0,11.733,4.528,12.807,10.782V46c0,1.104,0.896,2,2,2s2-0.896,2-2v-1.837
		C65.277,44.069,65.726,44,66,44c3.859,0,7,3.141,7,7S69.859,58,66,58z"/>
</g>
</symbol>


<!DOCTYPE svg PUBLIC "-//W3C//DTD SVG 1.1//EN" "http://www.w3.org/Graphics/SVG/1.1/DTD/svg11.dtd">
<!-- Uploaded to: SVG Repo, www.svgrepo.com, Generator: SVG Repo Mixer Tools -->
<symbol id="weather-icons-51-svgrepo-com"  width="800px"
	 height="800px" viewBox="0 0 96 96" enable-background="new 0 0 96 96" xml:space="preserve">
<g display="none">
</g>
<g id="Dibujo">
	<g>
		<path d="M50,60V48c0-1.104-0.896-2-2-2c-1.104,0-2,0.896-2,2v12c0,1.104,0.896,2,2,2C49.105,62,50,61.104,50,60z"/>
		<path d="M41,66V54c0-1.104-0.896-2-2-2c-1.104,0-2,0.896-2,2v12c0,1.104,0.896,2,2,2C40.105,68,41,67.104,41,66z"/>
		<path d="M59,66V54c0-1.104-0.896-2-2-2c-1.104,0-2,0.896-2,2v12c0,1.104,0.896,2,2,2C58.105,68,59,67.104,59,66z"/>
		<path d="M40,72h-2c-1.104,0-2,0.896-2,2v2c0,1.104,0.896,2,2,2h2c1.104,0,2-0.896,2-2v-2C42,72.896,41.105,72,40,72z"/>
		<path d="M49,66h-2c-1.104,0-2,0.896-2,2v2c0,1.104,0.896,2,2,2h2c1.104,0,2-0.896,2-2v-2C51,66.896,50.105,66,49,66z"/>
		<path d="M58,72h-2c-1.104,0-2,0.896-2,2v2c0,1.104,0.896,2,2,2h2c1.104,0,2-0.896,2-2v-2C60,72.896,59.105,72,58,72z"/>
		<path d="M66,40c-0.508,0-1.112,0.079-1.689,0.184C62.218,33.012,55.664,28,48,28c-7.664,0-14.218,5.012-16.312,12.184
			C31.113,40.079,30.508,40,30,40c-6.065,0-11,4.935-11,11s4.935,11,11,11h2c1.104,0,2-0.896,2-2s-0.896-2-2-2h-2
			c-3.86,0-7-3.141-7-7s3.14-7,7-7c0.277,0,0.723,0.068,1.193,0.162V46c0,1.104,0.896,2,2,2s2-0.896,2-2v-3.221
			C36.268,36.527,41.631,32,48,32c6.371,0,11.734,4.529,12.807,10.783V46c0,1.104,0.896,2,2,2s2-0.896,2-2v-1.837
			C65.279,44.069,65.726,44,66,44c3.859,0,7,3.141,7,7s-3.141,7-7,7h-2c-1.104,0-2,0.896-2,2s0.896,2,2,2h2c6.065,0,11-4.935,11-11
			S72.066,40,66,40z"/>
	</g>
</g>
</symbol>


<!DOCTYPE svg PUBLIC "-//W3C//DTD SVG 1.1//EN" "http://www.w3.org/Graphics/SVG/1.1/DTD/svg11.dtd">
<!-- Uploaded to: SVG Repo, www.svgrepo.com, Generator: SVG Repo Mixer Tools -->
<symbol id="weather-icons-54-svgrepo-com"  width="800px"
	 height="800px" viewBox="0 0 96 96" enable-background="new 0 0 96 96" xml:space="preserve">
<g display="none">
</g>
<g id="Dibujo">
	<g>
		<path d="M46,48.001v18c0,1.104,0.895,2,2,2c1.104,0,2-0.896,2-2v-18c0-1.104-0.896-2-2-2C46.895,46.001,46,46.896,46,48.001z"/>
		<path d="M23,67.001h-2c-1.105,0-2,0.896-2,2v2c0,1.104,0.895,2,2,2h2c1.104,0,2-0.896,2-2v-2C25,67.896,24.104,67.001,23,67.001z"
			/>
		<path d="M49,72.001h-2c-1.105,0-2,0.896-2,2v2c0,1.104,0.895,2,2,2h2c1.104,0,2-0.896,2-2v-2C51,72.896,50.104,72.001,49,72.001z"
			/>
		<path d="M76,64.001h-2c-1.105,0-2,0.896-2,2v2c0,1.104,0.895,2,2,2h2c1.104,0,2-0.896,2-2v-2C78,64.896,77.104,64.001,76,64.001z"
			/>
		<path d="M30,62.001h2c1.104,0,2-0.896,2-2s-0.896-2-2-2h-2c-3.859,0-7-3.141-7-7s3.141-7,7-7c0.277,0,0.723,0.068,1.193,0.162
			v1.838c0,1.104,0.895,2,2,2c1.105,0,2-0.896,2-2v-3.219C36.266,36.529,41.629,32.001,48,32.001c6.372,0,11.736,4.53,12.807,10.786
			v3.214c0,1.104,0.896,2,2,2s2-0.896,2-2v-1.837c0.472-0.094,0.919-0.163,1.193-0.163c3.859,0,7,3.141,7,7s-3.141,7-7,7h-2
			c-1.105,0-2,0.896-2,2s0.895,2,2,2h2c6.065,0,11-4.935,11-11s-4.935-11-11-11c-0.508,0-1.112,0.079-1.69,0.184
			C62.218,33.013,55.663,28.001,48,28.001c-7.664,0-14.219,5.012-16.312,12.184c-0.576-0.104-1.182-0.184-1.688-0.184
			c-6.065,0-11,4.935-11,11S23.935,62.001,30,62.001z"/>
		<path d="M39,52.001c-1.105,0-2,0.896-2,2v15.074c-1.178-0.683-2.544-1.073-4-1.073h-2c-1.105,0-2,0.896-2,2s0.895,2,2,2h2
			c2.206,0,4,1.794,4,4c0,1.104,0.895,2,2,2c1.104,0,2-0.896,2-2V54.001C41,52.896,40.104,52.001,39,52.001z"/>
		<path d="M66,65.001c-2.657,0-5.097,0.947-7,2.521V54.001c0-1.104-0.896-2-2-2c-1.105,0-2,0.896-2,2v22c0,0.001,0,0.001,0,0.001
			c0,1.104,0.895,2,2,2c1.104,0,2-0.896,2-2v-0.001c0-3.859,3.141-7,7-7c1.104,0,2-0.896,2-2S67.104,65.001,66,65.001z"/>
	</g>
</g>
</symbol>


<!DOCTYPE svg PUBLIC "-//W3C//DTD SVG 1.1//EN" "http://www.w3.org/Graphics/SVG/1.1/DTD/svg11.dtd">
<!-- Uploaded to: SVG Repo, www.svgrepo.com, Generator: SVG Repo Mixer Tools -->
<symbol id="weather-icons-39-svgrepo-com"  width="800px"
	 height="800px" viewBox="0 0 96 96" enable-background="new 0 0 96 96" xml:space="preserve">
<g display="none">
</g>
<g id="Dibujo">
	<g>
		<path d="M39,38h12c1.104,0,2-0.896,2-2s-0.896-2-2-2H39c-1.105,0-2,0.896-2,2S37.895,38,39,38z"/>
		<path d="M27,44h24c1.104,0,2-0.896,2-2s-0.896-2-2-2H27c-1.105,0-2,0.896-2,2S25.895,44,27,44z"/>
		<path d="M20.999,50H45c1.104,0,2-0.896,2-2s-0.896-2-2-2H20.999c-1.105,0-2,0.896-2,2S19.894,50,20.999,50z"/>
		<path d="M80,54c0-1.104-0.896-2-2-2H18c-1.105,0-2,0.896-2,2s0.895,2,2,2h60C79.104,56,80,55.104,80,54z"/>
		<path d="M78,58H21c-1.105,0-2,0.896-2,2s0.895,2,2,2h57c1.104,0,2-0.896,2-2S79.104,58,78,58z"/>
		<path d="M39,64l-12-0.001c-1.105,0-2,0.896-2,2s0.895,2,2,2L39,68c1.104,0,2-0.896,2-2S40.104,64,39,64z"/>
		<path d="M58,44h8c1.104,0,2-0.896,2-2s-0.896-2-2-2h-8c-1.105,0-2,0.896-2,2S56.895,44,58,44z"/>
		<path d="M49,48c0,1.104,0.895,2,2,2h21c1.104,0,2-0.896,2-2s-0.896-2-2-2H51C49.895,46,49,46.896,49,48z"/>
		<path d="M72,63.999L45,64c-1.105,0-2,0.896-2,2s0.895,2,2,2l27-0.001c1.104,0,2-0.896,2-2S73.104,63.999,72,63.999z"/>
	</g>
</g>
</symbol>


<!DOCTYPE svg PUBLIC "-//W3C//DTD SVG 1.1//EN" "http://www.w3.org/Graphics/SVG/1.1/DTD/svg11.dtd">
<!-- Uploaded to: SVG Repo, www.svgrepo.com, Generator: SVG Repo Mixer Tools -->
<symbol id="weather-icons-45-svgrepo-com"  width="800px"
	 height="800px" viewBox="0 0 96 96" enable-background="new 0 0 96 96" xml:space="preserve">
<g display="none">
</g>
<g id="Dibujo">
	<g>
		<path d="M66,34c-0.508,0-1.112,0.079-1.689,0.184C62.218,27.012,55.663,22,48,22c-7.664,0-14.219,5.012-16.312,12.184
			C31.112,34.079,30.507,34,30,34c-6.065,0-11,4.935-11,11s4.935,11,11,11c1.104,0,2-0.896,2-2s-0.896-2-2-2c-3.859,0-7-3.141-7-7
			s3.141-7,7-7c0.277,0,0.724,0.068,1.194,0.162V40c0,1.104,0.896,2,2,2s2-0.896,2-2v-3.224C36.269,30.525,41.631,26,48,26
			c6.372,0,11.736,4.53,12.808,10.787V40c0,1.104,0.896,2,2,2s2-0.896,2-2v-1.838C65.277,38.068,65.723,38,66,38
			c3.859,0,7,3.141,7,7s-3.141,7-7,7c-1.105,0-2,0.896-2,2s0.895,2,2,2c6.065,0,11-4.935,11-11S72.065,34,66,34z"/>
		<path d="M39.6,52.8c-0.754-1.006-2.445-1.006-3.199,0C35.602,53.863,33,57.525,33,60c0,2.944,2.056,5,5,5c2.944,0,5-2.056,5-5
			C43,57.525,40.397,53.863,39.6,52.8z"/>
		<path d="M56.4,52.8C55.602,53.863,53,57.525,53,60c0,2.944,2.056,5,5,5c2.944,0,5-2.056,5-5c0-2.475-2.603-6.137-3.4-7.2
			C58.846,51.794,57.154,51.794,56.4,52.8z"/>
		<path d="M46.4,64.8C45.602,65.863,43,69.525,43,72c0,2.944,2.056,5,5,5c2.944,0,5-2.056,5-5c0-2.475-2.603-6.137-3.4-7.2
			C48.846,63.794,47.154,63.794,46.4,64.8z"/>
	</g>
</g>
</symbol>
</svg>
